<svg width="24" height="25" viewBox="0 0 24 25" fill="none" xmlns="http://www.w3.org/2000/svg">
<rect width="24" height="25" fill="#1E1E1E"/>
<g clip-path="url(#clip0_1_2)">
<rect width="1440" height="4591" transform="translate(-249 -1204)" fill="white"/>
<g clip-path="url(#clip1_1_2)">
<rect width="1440" height="780" transform="translate(-249 -414)" fill="#F3F4F6"/>
<path fill-rule="evenodd" clip-rule="evenodd" d="M-89.241 227.144C-78.0042 227.495 -64.7345 227.031 -49.8198 225.775L80.7966 214.772L80.7125 213.773L-49.9039 224.776C-64.7922 226.03 -78.0218 226.491 -89.2097 226.142C-100.263 225.793 -109.803 224.546 -117.619 222.426C-125.33 220.324 -132.685 216.894 -139.45 212.223C-146.193 207.536 -153.035 201.105 -159.752 193.117C-166.49 185.098 -174.219 174.703 -182.734 162.201L-182.736 162.198L-325.138 -40.5216L-325.958 -39.9453L-183.563 162.766C-183.562 162.767 -183.562 162.768 -183.561 162.769C-175.035 175.286 -167.286 185.71 -160.52 193.762L-160.52 193.762C-153.76 201.801 -146.854 208.298 -140.022 213.046L-140.02 213.047C-133.164 217.782 -125.705 221.261 -117.883 223.393L-117.882 223.393C-109.969 225.54 -100.346 226.793 -89.241 227.144Z" fill="#CD001A" stroke="#CD001A" stroke-width="0.662344" stroke-miterlimit="10"/>
<path fill-rule="evenodd" clip-rule="evenodd" d="M-86.0623 220.384C-74.8255 220.735 -61.5557 220.271 -46.641 219.015L83.9753 208.012L83.8912 207.013L-46.7252 218.016C-61.6135 219.27 -74.8431 219.731 -86.031 219.382C-97.0839 219.033 -106.624 217.786 -114.441 215.666C-122.151 213.564 -129.507 210.134 -136.271 205.463C-143.014 200.777 -149.857 194.345 -156.573 186.358C-163.311 178.339 -171.04 167.943 -179.556 155.442L-179.558 155.439L-321.959 -47.2814L-322.779 -46.7051L-180.384 156.006C-180.384 156.007 -180.383 156.008 -180.382 156.009C-171.856 168.526 -164.107 178.95 -157.341 187.003L-157.341 187.003C-150.581 195.041 -143.675 201.539 -136.843 206.287L-136.842 206.287C-129.986 211.022 -122.527 214.501 -114.704 216.633L-114.704 216.634C-106.79 218.78 -97.1673 220.033 -86.0623 220.384Z" fill="#CD001A" stroke="#CD001A" stroke-width="0.662344" stroke-miterlimit="10"/>
<path fill-rule="evenodd" clip-rule="evenodd" d="M-82.8836 213.624C-71.6468 213.975 -58.377 213.512 -43.4623 212.255L87.1541 201.252L87.0699 200.253L-43.5465 211.256C-58.4348 212.51 -71.6644 212.972 -82.8523 212.622C-93.9051 212.273 -103.446 211.026 -111.262 208.906C-118.972 206.804 -126.328 203.374 -133.093 198.703C-139.836 194.017 -146.678 187.585 -153.395 179.598C-160.133 171.579 -167.861 161.184 -176.377 148.682L-176.379 148.679L-318.78 -54.0411L-319.601 -53.4648L-177.205 149.246C-177.205 149.247 -177.204 149.248 -177.204 149.249C-168.677 161.767 -160.929 172.19 -154.162 180.243L-154.162 180.243C-147.402 188.281 -140.496 194.779 -133.664 199.527L-133.663 199.528C-126.807 204.262 -119.348 207.741 -111.526 209.874L-111.525 209.874C-103.611 212.02 -93.9886 213.274 -82.8836 213.624Z" fill="#CD001A" stroke="#CD001A" stroke-width="0.662344" stroke-miterlimit="10"/>
<path fill-rule="evenodd" clip-rule="evenodd" d="M-79.7049 206.863C-68.4681 207.215 -55.1983 206.751 -40.2836 205.494L90.3328 194.491L90.2486 193.492L-40.3678 204.495C-55.2561 205.75 -68.4857 206.211 -79.6736 205.861C-90.7264 205.513 -100.267 204.266 -108.083 202.146C-115.794 200.044 -123.149 196.614 -129.914 191.942C-136.657 187.256 -143.499 180.824 -150.216 172.837C-156.954 164.818 -164.683 154.423 -173.198 141.921L-173.2 141.918L-315.602 -60.8019L-316.422 -60.2256L-174.027 142.485C-174.026 142.486 -174.025 142.487 -174.025 142.488C-165.499 155.006 -157.75 165.429 -150.984 173.482L-150.983 173.482C-144.224 181.521 -137.317 188.018 -130.486 192.766L-130.484 192.767C-123.628 197.501 -116.169 200.98 -108.347 203.113L-108.346 203.113C-100.433 205.259 -90.8099 206.513 -79.7049 206.863Z" fill="#CD001A" stroke="#CD001A" stroke-width="0.662344" stroke-miterlimit="10"/>
<path fill-rule="evenodd" clip-rule="evenodd" d="M-76.5252 200.103C-65.2884 200.454 -52.0186 199.99 -37.1039 198.734L93.5125 187.731L93.4283 186.732L-37.1881 197.735C-52.0764 198.989 -65.306 199.45 -76.4939 199.101C-87.5467 198.752 -97.0872 197.505 -104.903 195.385C-112.614 193.283 -119.97 189.853 -126.734 185.182C-133.477 180.495 -140.319 174.064 -147.036 166.076C-153.774 158.057 -161.503 147.662 -170.018 135.16L-170.02 135.157L-312.422 -67.5626L-313.242 -66.9863L-170.847 135.725C-170.846 135.726 -170.846 135.727 -170.845 135.728C-162.319 148.245 -154.57 158.669 -147.804 166.721L-147.804 166.721C-141.044 174.76 -134.138 181.257 -127.306 186.005L-127.305 186.006C-120.448 190.741 -112.99 194.22 -105.167 196.352L-105.167 196.352C-97.2531 198.499 -87.6302 199.752 -76.5252 200.103Z" fill="#CD001A" stroke="#CD001A" stroke-width="0.662344" stroke-miterlimit="10"/>
<path fill-rule="evenodd" clip-rule="evenodd" d="M-73.3465 193.341C-62.1097 193.692 -48.8399 193.228 -33.9252 191.972L96.6912 180.969L96.607 179.97L-34.0094 190.973C-48.8977 192.227 -62.1273 192.689 -73.3152 192.339C-84.368 191.99 -93.9085 190.743 -101.725 188.623C-109.435 186.521 -116.791 183.091 -123.556 178.42C-130.299 173.734 -137.141 167.302 -143.858 159.315C-150.596 151.296 -158.324 140.9 -166.84 128.399L-166.842 128.396L-309.243 -74.3243L-310.064 -73.748L-167.668 128.963C-167.668 128.964 -167.667 128.965 -167.666 128.966C-159.14 141.483 -151.392 151.907 -144.625 159.96L-144.625 159.96C-137.865 167.998 -130.959 174.496 -124.127 179.244L-124.126 179.244C-117.27 183.979 -109.811 187.458 -101.988 189.59L-101.988 189.591C-94.0744 191.737 -84.4515 192.991 -73.3465 193.341Z" fill="#CD001A" stroke="#CD001A" stroke-width="0.662344" stroke-miterlimit="10"/>
<path fill-rule="evenodd" clip-rule="evenodd" d="M-70.1678 186.582C-58.931 186.933 -45.6612 186.47 -30.7465 185.213L99.8699 174.21L99.7857 173.211L-30.8307 184.214C-45.719 185.468 -58.9486 185.93 -70.1364 185.58C-81.1893 185.231 -90.7298 183.984 -98.546 181.864C-106.257 179.762 -113.612 176.332 -120.377 171.661C-127.12 166.975 -133.962 160.543 -140.679 152.556C-147.417 144.537 -155.146 134.142 -163.661 121.64L-163.663 121.637L-306.064 -81.0831L-306.885 -80.5068L-164.49 122.204C-164.489 122.205 -164.488 122.206 -164.488 122.207C-155.962 134.725 -148.213 145.148 -141.446 153.201L-141.446 153.201C-134.686 161.24 -127.78 167.737 -120.948 172.485L-120.947 172.486C-114.091 177.22 -106.632 180.699 -98.8097 182.832L-98.8091 182.832C-90.8957 184.978 -81.2727 186.232 -70.1678 186.582Z" fill="#CD001A" stroke="#CD001A" stroke-width="0.662344" stroke-miterlimit="10"/>
<path fill-rule="evenodd" clip-rule="evenodd" d="M-66.9881 179.821C-55.7513 180.173 -42.4815 179.709 -27.5668 178.452L103.05 167.449L102.965 166.45L-27.651 177.453C-42.5393 178.708 -55.7689 179.169 -66.9568 178.819C-78.0096 178.471 -87.5501 177.224 -95.3663 175.104C-103.077 173.002 -110.432 169.572 -117.197 164.9C-123.94 160.214 -130.782 153.782 -137.499 145.795C-144.237 137.776 -151.966 127.381 -160.481 114.879L-160.483 114.876L-302.885 -87.8439L-303.705 -87.2676L-161.31 115.443C-161.309 115.444 -161.309 115.445 -161.308 115.446C-152.782 127.964 -145.033 138.387 -138.267 146.44L-138.267 146.44C-131.507 154.479 -124.601 160.976 -117.769 165.724L-117.768 165.725C-110.911 170.459 -103.453 173.938 -95.63 176.071L-95.6294 176.071C-87.716 178.217 -78.0931 179.471 -66.9881 179.821Z" fill="#CD001A" stroke="#CD001A" stroke-width="0.662344" stroke-miterlimit="10"/>
<rect width="24" height="24" transform="translate(0 0.5)" fill="#F3F4F6"/>
<path d="M19 12.5H5" stroke="#CD001A" stroke-width="1.5" stroke-linecap="round" stroke-linejoin="round"/>
<path d="M14 17.5L19 12.5" stroke="#CD001A" stroke-width="1.5" stroke-linecap="round" stroke-linejoin="round"/>
<path d="M14 7.5L19 12.5" stroke="#CD001A" stroke-width="1.5" stroke-linecap="round" stroke-linejoin="round"/>
</g>
</g>
<defs>
<clipPath id="clip0_1_2">
<rect width="1440" height="4591" fill="white" transform="translate(-249 -1204)"/>
</clipPath>
<clipPath id="clip1_1_2">
<rect width="1440" height="780" fill="white" transform="translate(-249 -414)"/>
</clipPath>
</defs>
</svg>
