<svg width="87" height="81" viewBox="0 0 87 81" fill="none" xmlns="http://www.w3.org/2000/svg">
<path d="M69.4842 2.46601L69.4845 2.46608C73.8551 3.53056 77.4607 5.20126 80.2062 7.41586C82.9236 9.62366 84.1359 12.5656 85.3452 15.9668C85.7714 17.1697 86.08 19.0936 86.2994 21.1122C86.5181 23.1242 86.6459 25.207 86.7172 26.7142C86.7442 27.3013 86.2758 27.7926 85.6899 27.7926H61.3834C61.3237 26.0198 60.8534 24.6945 60.0445 23.6884C59.2017 22.6401 58.012 21.9644 56.6086 21.4774L56.6078 21.4771C53.5766 20.4368 49.1291 20.2963 44.8198 20.2963H8.20986V0.83102H52.9123C59.4728 0.83102 65.0497 1.38035 69.4842 2.46601Z" fill="white" stroke="white" stroke-width="0.491019"/>
<path d="M61.6202 61.1559V50.239H86.7171V80.5728H25.418C20.7538 80.5728 16.8153 80.2458 13.6955 79.6118L13.6945 79.6116C10.6196 78.9999 8.10153 77.9087 6.20785 76.3856C4.33375 74.8647 2.93885 72.7851 2.05307 70.19C1.14939 67.5244 0.684474 64.001 0.684474 59.7155C0.684474 55.8575 0.931669 52.432 1.41605 49.5215C1.86686 46.8206 2.74874 44.4946 4.03427 42.5912L4.23352 42.3125C5.61697 40.3773 7.56428 38.8026 10.0428 37.638L10.0438 37.6375C12.5469 36.4481 15.9361 35.596 20.1509 35.1021L20.1509 35.1021L20.1549 35.1016L58.2995 30.0033L58.301 30.0031C58.9029 29.919 59.4451 30.394 59.4451 31.0072V47.1798C59.4451 47.7183 59.029 48.1608 58.4951 48.1946L35.6663 49.6309L35.6663 49.6307L35.6579 49.6315C32.5205 49.9381 30.3732 50.4153 29.1516 51.1114C27.7098 51.9327 27.0287 53.6559 27.0287 56.1122V56.1542H27.0283L27.029 56.1671C27.1487 58.4457 27.9208 60.0004 29.4157 60.6424C30.0365 60.9094 30.9399 61.0971 32.1504 61.2196C33.3651 61.3426 34.9071 61.4014 36.8156 61.4014H61.3747H61.6202V61.1559Z" fill="white" stroke="white" stroke-width="0.491019"/>
</svg>
