<svg width="101" height="32" viewBox="0 0 101 32" fill="none" xmlns="http://www.w3.org/2000/svg">
<path d="M26.7388 23.7681V3.86024C26.7388 3.72144 26.6258 3.6084 26.487 3.6084H17.6111C16.5696 3.6084 15.6479 3.65411 14.8716 3.74388C14.1053 3.83281 13.447 3.97577 12.9142 4.16943C12.3873 4.36143 11.8936 4.64485 11.4489 5.01056C11.0051 5.37793 10.5662 5.86665 10.1456 6.46176C9.72424 7.05853 9.24799 7.82651 8.72935 8.74411L0.0337997 23.6426C-0.0626143 23.8105 0.0587344 24.0199 0.252394 24.0199H5.46125C5.55184 24.0199 5.63496 23.9717 5.67984 23.8928L8.24645 19.4012H21.5873V23.7672C21.5873 23.906 21.7004 24.0191 21.8392 24.0191H26.487C26.6258 24.0191 26.7388 23.906 26.7388 23.7672V23.7681ZM10.6925 15.1174L13.2965 10.5768C13.7013 9.86617 14.1152 9.55864 14.5267 9.16966C14.9422 8.7732 15.4634 8.47731 16.0768 8.28864C16.6769 8.10744 17.4116 8.07438 18.2619 8.03199C19.1013 7.99292 20.1644 7.97297 21.4194 7.97297H21.5873V15.1166H10.6925V15.1174Z" fill="white"/>
<path d="M35.5613 0H30.9418C30.8027 0 30.6899 0.112753 30.6899 0.25184V23.7686C30.6899 23.9076 30.8027 24.0204 30.9418 24.0204H35.5613C35.7004 24.0204 35.8132 23.9076 35.8132 23.7686V0.25184C35.8132 0.112753 35.7004 0 35.5613 0Z" fill="white"/>
<path d="M54.5488 23.6722C55.4364 23.4511 56.1545 23.0945 56.6832 22.6133C57.2076 22.1379 57.59 21.512 57.8202 20.7532C58.0546 19.9819 58.1734 19.0427 58.1734 17.9622V13.9984C58.1734 12.9187 58.0546 11.9861 57.8202 11.2248C57.5908 10.4793 57.2085 9.85756 56.6832 9.37882C56.1579 8.9009 55.4398 8.54517 54.5479 8.31992C53.6461 8.09468 52.5091 7.97998 51.1684 7.97998H45.5241C45.3853 7.97998 45.2722 8.09302 45.2722 8.23182V12.0269C45.2722 12.1665 45.3853 12.2795 45.5249 12.2787L49.6358 12.2679C50.27 12.2679 50.8036 12.2987 51.2216 12.3602C51.6555 12.4267 51.9988 12.5721 52.2415 12.7932C52.485 13.0151 52.6587 13.3318 52.7568 13.7324C52.8499 14.1156 52.8973 14.6284 52.8973 15.2584V16.7005C52.8973 17.3313 52.8499 17.85 52.7576 18.2423C52.6595 18.6537 52.4858 18.9753 52.2423 19.1981C51.9996 19.4192 51.6572 19.5646 51.2241 19.6311C50.8052 19.6926 50.2725 19.7234 49.6383 19.7234H44.9381V12.868C44.9381 12.7292 44.8251 12.6162 44.6863 12.6162H40.0335C39.8947 12.6162 39.7816 12.7292 39.7816 12.868V31.7485C39.7816 31.8873 39.8947 32.0004 40.0335 32.0004H44.6863C44.8251 32.0004 44.9381 31.8873 44.9381 31.7485V24.0113H51.1701C52.5108 24.0113 53.6478 23.8974 54.5504 23.6714L54.5488 23.6722Z" fill="white"/>
<path d="M73.1535 12.3693C73.5873 12.4358 73.9306 12.5812 74.1733 12.8023C74.4168 13.0242 74.5905 13.3409 74.6886 13.7415C74.7817 14.1247 74.8291 14.6375 74.8291 15.2675V23.7677C74.8291 23.9065 74.9421 24.0196 75.0809 24.0196H79.8534C79.9922 24.0196 80.1053 23.9065 80.1053 23.7677V14.0058C80.1053 12.9261 79.9864 11.9936 79.752 11.2322C79.5226 10.4859 79.1403 9.86499 78.615 9.38624C78.0897 8.90833 77.3716 8.55259 76.4798 8.32735C75.5771 8.1021 74.4393 7.9874 73.1003 7.9874H66.8683V0.25184C66.8683 0.113037 66.7552 0 66.6164 0H61.9636C61.8248 0 61.7118 0.113037 61.7118 0.25184V23.7686C61.7118 23.9074 61.8248 24.0204 61.9636 24.0204H66.6164C66.7552 24.0204 66.8683 23.9074 66.8683 23.7686V12.277H71.5685C72.2026 12.277 72.7362 12.3078 73.1535 12.3693Z" fill="white"/>
<path d="M99.5575 9.38993C99.0016 8.9415 98.2735 8.60475 97.3943 8.39061C96.5024 8.17227 95.383 8.06226 94.0688 8.06226H85.3351C85.1949 8.06226 85.0807 8.17646 85.0807 8.31671V11.7984C85.0807 11.9386 85.1949 12.0528 85.3351 12.0528H92.4505C93.3138 12.0528 94.1947 12.0814 94.7918 12.2863C95.2847 12.4576 95.6257 12.7406 95.6996 13.3276C95.7155 13.4553 95.823 13.5518 95.9515 13.5518H100.623C100.768 13.5518 100.884 13.4301 100.878 13.2848C100.849 12.681 100.775 11.6145 100.6 11.1215C100.359 10.4413 100.113 9.84089 99.5575 9.38993Z" fill="white"/>
<path d="M84.2945 16.2915C84.0103 16.6896 83.8183 17.1817 83.7227 17.7551C83.6254 18.3403 83.5756 19.0285 83.5756 19.8015C83.5756 20.6617 83.6687 21.3715 83.8515 21.9118C84.031 22.4379 84.3153 22.8626 84.6985 23.1726C85.0849 23.4835 85.5961 23.7046 86.217 23.8276C86.8453 23.9556 87.6366 24.0204 88.5708 24.0204H100.626C100.765 24.0204 100.878 23.9074 100.878 23.7686V18.1084C100.878 17.9696 100.765 17.8565 100.626 17.8565H96.013C95.8742 17.8565 95.7611 17.9696 95.7611 18.1084L95.7611 19.9411H90.833C90.0708 19.9411 89.6239 20.0417 89.3895 19.9411C89.116 19.8231 88.9656 19.5363 88.9423 19.0883V19.08C88.9423 18.5954 89.077 18.2738 89.3421 18.1225C89.5765 17.9887 89.9962 17.894 90.6238 17.8324L95.1885 17.5457C95.3215 17.5374 95.4245 17.4268 95.4245 17.2939V14.0598C95.4245 13.9077 95.2899 13.7897 95.1394 13.8105L87.5119 14.8303C86.6666 14.9292 85.9826 15.1004 85.4756 15.3415C84.9736 15.5775 84.5771 15.8975 84.2945 16.2923V16.2915Z" fill="white"/>
</svg>
