<svg width="92" height="38" viewBox="0 0 92 38" fill="none" xmlns="http://www.w3.org/2000/svg">
<path fill-rule="evenodd" clip-rule="evenodd" d="M4.64523 12.2458C5.05876 12.0605 8.91818 12.1588 9.70815 12.1588C14.7854 12.1588 15.12 11.5969 15.1189 14.4296L15.1194 19.5946C15.1225 20.4499 15.0363 21.1324 14.3866 21.3581C13.919 21.5204 10.095 21.4321 9.2921 21.4321C4.26078 21.4321 3.89866 21.9772 3.89992 19.1774L3.89936 14.0124C3.89627 13.0813 3.96398 12.5498 4.64509 12.2458H4.64523ZM0.599416 20.7601C0.812361 23.0613 2.53629 25.1189 4.87995 25.2102C7.68433 25.3202 10.706 25.2102 13.536 25.2145C15.0871 25.2176 15.9379 24.9236 16.7837 24.095C17.4829 23.41 18.0766 22.6386 18.3399 21.322C18.5176 20.4319 18.5243 13.8439 18.4181 12.7922C18.1834 10.4662 16.4894 8.43846 14.1221 8.37617C11.2742 8.30109 8.32457 8.37744 5.46428 8.37435C2.97538 8.37125 1.19681 9.76059 0.689454 12.2235C0.497579 13.1571 0.496315 19.6506 0.599416 20.7601Z" fill="white"/>
<path fill-rule="evenodd" clip-rule="evenodd" d="M48.287 17.6212C48.2708 16.6906 48.3609 15.9042 49.1371 15.6681C49.4903 15.5599 51.2987 15.6202 51.8142 15.6202C54.0466 15.6202 55.2817 15.09 55.2514 17.6199L48.287 17.6212ZM58.3916 21.6703C56.399 21.6442 54.3906 21.6672 52.3966 21.6672C49.9338 21.6672 48.177 22.2342 48.2944 19.8396L58.7314 19.8378C58.863 18.0147 58.8549 15.8533 58.075 14.4087C57.4564 13.2624 56.2287 12.0353 54.4801 11.9073C53.4182 11.8296 49.3413 11.7972 48.4651 11.998C46.9722 12.34 45.7955 13.5943 45.259 14.8693C44.6678 16.2767 44.7534 18.829 44.8175 20.5123C44.8883 22.4021 45.8279 23.8752 46.8034 24.6113C48.4173 25.8284 49.6965 25.5467 51.9806 25.5467C53.925 25.5467 56.0668 25.6319 57.9768 25.5331L58.3917 21.6703H58.3916Z" fill="white"/>
<path fill-rule="evenodd" clip-rule="evenodd" d="M78.4734 25.4249C78.4734 23.2593 78.4721 21.0928 78.4721 18.9272C78.4721 15.7197 78.7596 15.8619 81.8528 15.8619C85.267 15.8619 85.0471 15.7507 85.0471 19.177C85.0471 20.1437 84.9857 24.9997 85.0745 25.5443L88.4819 25.5461C88.6526 25.0594 88.5458 20.1928 88.5458 19.2604C88.5458 17.0499 88.7123 15.5169 87.5498 13.8908C86.5884 12.545 85.5414 11.8898 83.1841 11.8916C82.1701 11.8923 81.128 11.7717 80.25 12.1584C79.0564 12.6849 78.7869 13.309 78.4721 13.503L78.4652 5.96704L74.9964 7.25261L74.9939 25.5455L78.4734 25.4249Z" fill="white"/>
<path fill-rule="evenodd" clip-rule="evenodd" d="M73.6097 23.1757L71.1077 20.5369C70.5991 20.9732 70.7499 21.5632 69.5422 21.5943C68.666 21.6167 67.7544 21.593 66.8751 21.593C64.3401 21.593 63.8271 21.951 63.8278 19.2608C63.8291 15.4558 63.4689 15.8623 68.3728 15.8623C68.7784 15.8623 69.305 15.8331 69.6962 15.8685C70.293 15.9219 70.206 16.124 70.6196 16.3751C71.4139 15.8369 72.7527 14.5607 73.3998 14.2144C73.0923 13.1609 71.5617 12.0444 70.1235 11.9145L64.5414 11.912C62.8628 12.0555 61.8102 13.1627 61.1737 14.1374C60.277 15.5093 60.3298 16.9924 60.3298 18.8443C60.3298 20.7383 60.3137 22.0829 61.2774 23.4479C61.9817 24.4444 63.0442 25.4589 64.7915 25.5415C66.0199 25.5993 69.2472 25.6696 70.3544 25.4949C71.6107 25.2973 73.2464 24.1871 73.6097 23.1757Z" fill="white"/>
<path fill-rule="evenodd" clip-rule="evenodd" d="M28.4337 11.8721L34.0301 11.8901L34.0544 25.562L37.525 25.5638L37.5232 11.9006L43.2271 11.8852L43.2251 7.95774L28.4506 7.93665L28.4337 11.8721Z" fill="white"/>
<path fill-rule="evenodd" clip-rule="evenodd" d="M4.31628 6.43178L15.4699 6.4256C15.3035 5.99534 11.3248 1.69883 10.6032 0.788681C10.3852 0.513935 10.1238 0.203757 9.87421 -0.00012207C9.61954 0.160872 8.7259 1.29529 8.45326 1.59618L5.67374 4.80989C5.39239 5.10896 4.49074 6.11781 4.31628 6.43178Z" fill="white"/>
<path fill-rule="evenodd" clip-rule="evenodd" d="M20.2629 11.9308L20.2927 22.8333C20.5348 22.6823 23.5095 19.0781 23.9186 18.5759C24.2844 18.1264 24.8346 17.5689 25.1358 17.0952L22.7319 14.2202C22.4176 13.8751 20.646 11.5939 20.2604 11.4017L20.2629 11.9308Z" fill="white"/>
<path fill-rule="evenodd" clip-rule="evenodd" d="M52.4465 31.3706C55.0136 30.8019 55.4266 34.5607 53.0965 35.1251C50.4717 35.7616 50.0358 31.9039 52.4465 31.3706ZM49.5836 33.6712C49.7023 35.5006 51.146 36.4541 53.145 36.1737C54.8074 35.9407 56.0209 34.7142 55.8936 32.837C55.629 28.9338 49.3235 29.6475 49.5836 33.6712Z" fill="white"/>
<path fill-rule="evenodd" clip-rule="evenodd" d="M59.4853 34.6713C58.9897 35.7012 57.3317 35.189 57.8775 33.9103C58.3774 32.738 60.1094 33.3745 59.4853 34.6713ZM57.6415 35.7547C58.3936 36.1022 58.8928 36.5591 59.8616 35.8977C61.2377 34.959 60.9892 32.398 59.2978 32.3445C59.0643 32.3371 58.8525 32.37 58.6526 32.4439C57.5664 32.8455 58.8686 32.1897 57.0044 32.4532L56.1953 37.7936L57.3057 37.8011L57.6415 35.7547Z" fill="white"/>
<path fill-rule="evenodd" clip-rule="evenodd" d="M18.6122 31.7827C18.8642 31.6006 19.0916 31.2693 19.2635 31.0064C18.0321 29.4044 14.611 30.7091 15.6289 32.7394C16.1195 33.7184 17.3379 33.5314 17.6329 34.2393C17.8427 34.7429 17.39 35.1357 16.9422 35.1642C16.4237 35.1979 16.0834 34.8293 15.6996 34.6645C15.4731 34.8679 15.1395 35.2102 15.0066 35.5329C15.7902 35.8767 16.4884 36.5387 17.7558 36.0637C18.4512 35.8027 19.2604 34.928 18.8772 33.9024C18.4792 32.8351 17.3118 32.9171 16.9137 32.3696C16.5846 31.9157 16.9286 31.4501 17.3944 31.3762C17.929 31.291 18.2121 31.6111 18.6122 31.7827Z" fill="white"/>
<path fill-rule="evenodd" clip-rule="evenodd" d="M71.5415 33.4053C72.617 32.8253 73.3293 34.6 72.1866 35.1569C70.9788 35.7455 70.4572 33.9902 71.5415 33.4053ZM74.1825 32.4299C72.7281 32.4219 73.1703 32.3757 72.9498 32.8333C72.368 32.584 71.9078 32.0432 70.9503 32.5013C70.4149 32.7575 69.9789 33.2983 69.8399 34.0455C69.5059 35.8389 71.1812 36.8459 72.4809 35.7935L72.617 36.1384L73.6354 36.0906L74.1825 32.4299Z" fill="white"/>
<path fill-rule="evenodd" clip-rule="evenodd" d="M36.506 33.3941C37.7691 33.0411 38.0889 34.8202 37.0618 35.1596C35.7645 35.5885 35.3156 33.7267 36.506 33.3941ZM38.8297 34.7542C39.565 32.2212 35.4994 31.3757 34.7051 33.7833C34.3008 35.0092 35.2125 35.9602 36.1849 36.1597C37.4661 36.422 38.5683 35.6555 38.8297 34.7542Z" fill="white"/>
<path fill-rule="evenodd" clip-rule="evenodd" d="M21.2244 33.4215C22.4205 32.964 22.9273 34.7356 21.8977 35.1328C20.6346 35.6189 19.9645 33.9032 21.2244 33.4215ZM19.3796 34.5882C19.6056 36.9386 24.029 36.6259 23.6258 33.9206C23.2664 31.5069 19.1305 32.0005 19.3796 34.5882Z" fill="white"/>
<path fill-rule="evenodd" clip-rule="evenodd" d="M33.8946 35.1483C33.0247 35.3217 31.6635 35.4634 32.0193 34.1057C32.1198 33.7229 32.4702 33.3729 32.8732 33.2958C33.4557 33.1846 33.7133 33.4165 34.1723 33.5432L34.2878 32.6426C32.8583 32.1807 31.7628 32.2441 31.1051 33.4338C30.3948 34.7206 31.1182 35.9619 32.3676 36.1852C31.861 36.4163 31.7833 36.0925 31.6411 36.7539C31.9695 36.7241 32.2596 36.7383 32.5136 36.8297C32.5992 37.5999 31.8287 37.3543 31.1182 37.5147L30.9847 37.9946C31.7256 38.0177 32.4738 37.9834 33.0389 37.6179C34.0618 36.956 32.8694 36.2771 32.8675 36.2722C32.8583 36.2422 32.8283 36.246 32.8104 36.2304C33.8879 36.1061 33.7786 36.2174 33.8946 35.1482V35.1483Z" fill="white"/>
<path fill-rule="evenodd" clip-rule="evenodd" d="M29.0409 32.4422C28.8844 33.2988 28.957 35.0281 28.0933 35.1226C26.8711 35.2556 27.6406 33.1229 27.6742 32.4224L26.5427 32.4466C26.2321 34.2213 25.8105 36.2795 28.1002 36.2092C29.0819 36.1787 29.5334 35.7293 29.755 34.9194C29.9171 34.33 30.1271 33.0787 30.1581 32.4286L29.0409 32.4422Z" fill="white"/>
<path fill-rule="evenodd" clip-rule="evenodd" d="M26.0355 29.9417L24.9276 29.9447L23.9806 36.1335L25.0866 36.1323L26.0355 29.9417Z" fill="white"/>
<path fill-rule="evenodd" clip-rule="evenodd" d="M69.459 32.6637C65.3264 31.0189 64.6252 37.1506 68.9344 36.0602L69.0697 35.1402C68.5686 35.2478 68.0184 35.4473 67.5296 35.1813C67.2148 35.0097 67.0427 34.5634 67.1937 34.0748C67.5165 33.0298 68.3748 33.2593 69.3267 33.5328L69.459 32.6637Z" fill="white"/>
<path fill-rule="evenodd" clip-rule="evenodd" d="M63.1643 31.0911L62.0639 31.1029L61.8572 32.4076L61.4101 32.4524L61.2765 33.422C61.4796 33.5167 61.3553 33.4942 61.664 33.4929C61.6236 34.2519 61.2641 35.5082 61.3286 36.1391L62.4192 36.1149L62.834 33.5153L63.3655 33.4836L63.4891 32.425L63.0097 32.4232L63.1643 31.0911Z" fill="white"/>
<path fill-rule="evenodd" clip-rule="evenodd" d="M76.4571 33.4162C76.6205 33.2571 76.8216 33.1053 76.9347 32.8387C76.3055 32.1668 74.9109 32.1928 74.5444 33.1004C73.9688 34.5283 75.8678 34.3306 75.7927 35.2798C75.2648 35.5104 75.1438 35.3102 74.7649 35.0361L74.1868 35.5042C74.7519 36.4969 76.2509 36.4466 76.7439 35.4681C77.46 34.0471 75.1928 34.2218 75.5224 33.2509C75.9174 33.0979 76.1316 33.2838 76.4571 33.4162Z" fill="white"/>
<path fill-rule="evenodd" clip-rule="evenodd" d="M46.3821 32.918C45.8858 32.1234 44.4235 32.1844 44.0031 33.0148C43.2889 34.4253 45.3102 34.3887 45.212 35.2335C44.7003 35.6201 44.534 35.2913 44.1477 35.0463L43.6031 35.5039C44.1203 36.4008 45.5157 36.4971 46.089 35.604C47.0452 34.1138 44.2173 33.9561 44.9904 33.2487C45.3654 33.0453 45.5598 33.2703 45.8325 33.4121L46.3821 32.918Z" fill="white"/>
<path fill-rule="evenodd" clip-rule="evenodd" d="M65.3919 32.4242L64.2884 32.4273C64.1662 32.9688 63.6948 35.7169 63.742 36.1372L64.8362 36.116L65.392 32.4242H65.3919Z" fill="white"/>
<path fill-rule="evenodd" clip-rule="evenodd" d="M88.6766 8.67861L88.9269 8.67496C89.0854 8.27704 88.9698 7.15697 88.9877 6.64783L89.1418 6.8759C89.1729 6.93566 89.2362 7.10101 89.266 7.17933L89.6672 8.27268C90.182 9.74779 90.5906 7.16006 91.0259 6.66892L91.0513 8.66624L91.3395 8.68353C91.5594 8.29701 91.4407 6.59989 91.4047 6.03985L90.9017 6.02368L90.1119 8.04082C90.046 8.14712 90.0522 8.13278 89.9888 8.19816L89.1828 6.0286L88.6147 6.0324C88.5755 6.60115 88.4587 8.29195 88.6767 8.67861H88.6766Z" fill="white"/>
<path fill-rule="evenodd" clip-rule="evenodd" d="M36.1702 31.5514C36.5863 31.4408 36.2633 31.1188 36.8725 31.22C37.1339 31.2636 37.4177 31.4339 37.6891 31.4993C38.5014 31.6937 38.8423 31.1778 38.9485 30.489C37.8916 30.4879 38.5609 30.7514 38.0022 30.8074C37.8101 30.8266 37.2632 30.604 37.0426 30.5519C36.2577 30.3647 35.7709 30.8615 35.7883 31.5509L36.1702 31.5514Z" fill="white"/>
<path fill-rule="evenodd" clip-rule="evenodd" d="M85.7233 6.18284C85.8642 6.39853 85.5966 6.30966 86.0871 6.34763C86.2361 6.35944 86.52 6.33947 86.6908 6.342C86.7075 6.87968 86.5808 8.29756 86.7622 8.67185L87.0118 8.68296C87.2348 8.28265 87.0795 6.91146 87.0951 6.34327C88.1085 6.32147 88.0259 6.467 88.0588 6.0996C87.8377 5.96279 86.7162 6.02184 86.2573 6.01945C85.7115 6.01692 85.8449 6.08779 85.7233 6.18284Z" fill="white"/>
<path fill-rule="evenodd" clip-rule="evenodd" d="M65.7184 31.2557C66.2631 30.3842 64.7944 29.8502 64.4299 30.5632C64.0088 31.3856 65.2223 32.0481 65.7184 31.2557Z" fill="white"/>
<path fill-rule="evenodd" clip-rule="evenodd" d="M52.6123 29.9537C53.4675 30.0382 53.4842 29.9873 53.9375 29.5503C54.235 29.2637 54.6467 29.0138 54.8975 28.662L53.8109 28.6483C53.3538 28.6483 52.6806 29.7871 52.6123 29.9537Z" fill="white"/>
<path fill-rule="evenodd" clip-rule="evenodd" d="M43.1028 35.3817L42.3756 34.9876C42.0633 35.1877 41.9056 35.4811 41.3013 35.4041C40.8784 35.3499 40.666 35.049 40.6195 34.6271L43.3102 34.6146C43.5027 31.9591 40.3674 31.7925 39.547 33.6859C38.8353 35.3294 40.4133 36.776 42.0688 36.1487C42.6265 35.9374 42.7923 35.7092 43.1028 35.3817ZM40.6847 33.8656L42.2719 33.8774C42.1962 33.436 41.9851 33.2527 41.497 33.2626C41.0635 33.2714 40.7927 33.5281 40.6847 33.8656Z" fill="white"/>
</svg>
