<svg width="88" height="32" viewBox="0 0 88 32" fill="none" xmlns="http://www.w3.org/2000/svg">
<path d="M12.2668 29.0753C11.7033 29.341 11.1417 29.1432 10.721 28.9082C10.2979 28.6683 10.0304 28.2727 9.9177 27.72C9.54572 25.9286 9.94459 21.2725 11.1102 13.7617C11.1644 13.4082 11.1644 13.1003 11.1102 12.841C11.0468 12.533 9.79052 12.6285 9.79052 12.6285C9.73047 12.3288 12.0991 9.49962 13.1056 9.2954C13.6546 9.17713 14.1028 9.1966 14.4352 9.34077C14.769 9.48197 14.9782 9.7299 15.0463 10.0768C15.1323 10.4984 14.9376 12.374 14.4644 15.717C13.695 21.1899 13.4179 24.4501 13.6358 25.4924C13.6764 25.6871 13.7631 25.8329 13.918 25.9383C14.0672 26.042 15.3875 25.7778 15.3875 25.7778C13.9261 28.2096 12.9646 28.7493 12.2668 29.0753ZM21.8844 10.239V6.41957L12.5837 8.3291L3.28318 6.41957V10.239L0.558105 10.7934V27.6291L3.28318 28.1868V31.9998L12.5837 30.0917L21.8844 31.9998V28.1868L24.6103 27.6291V10.7934L21.8844 10.239Z" fill="white"/>
<path d="M16.1912 3.60572C16.1912 5.59971 14.5783 7.21594 12.5873 7.21594C10.5918 7.21594 8.97705 5.59971 8.97705 3.60572C8.97705 1.61487 10.5918 0.000281811 12.5873 0.000281811C14.5783 0.000281811 16.1912 1.61487 16.1912 3.60572Z" fill="white"/>
<path d="M59.9392 8.63049V16.7623L47.5301 8.63049H45.6163C45.3764 8.63049 45.1859 8.82349 45.1859 9.05047V19.9519H47.8697V11.8202L60.279 19.9519H62.1927C62.4325 19.9519 62.6232 19.7591 62.6232 19.5321V8.63049H59.9392Z" fill="white"/>
<path d="M40.9326 8.63062V16.7624L28.5233 8.63062H26.6097C26.3698 8.63062 26.1793 8.82361 26.1793 9.05059V19.952H28.8632V11.8204L41.2723 19.952H43.1861C43.4259 19.952 43.6165 19.7592 43.6165 19.5322V8.63062H40.9326Z" fill="white"/>
<path d="M77.2681 17.3338C77.2681 17.5691 77.0736 17.757 76.8379 17.757H66.9575C66.716 17.757 66.5255 17.5691 66.5255 17.3338V11.2401C66.5255 11.005 66.716 10.8136 66.9575 10.8136H76.8379C77.0736 10.8136 77.2681 11.005 77.2681 11.2401V17.3338ZM79.1187 8.61857H64.6717C64.435 8.61857 64.2455 8.80976 64.2455 9.04004V19.5322C64.2455 19.7592 64.435 19.952 64.6717 19.952H79.1187C79.3587 19.952 79.5491 19.7592 79.5491 19.5322V9.04004C79.5491 8.80976 79.3587 8.61857 79.1187 8.61857Z" fill="white"/>
<path d="M26.1788 22.2541H26.8072V29.1959H26.1788V22.2541Z" fill="white"/>
<path d="M29.0952 29.1958V24.4612H29.7364L32.2264 28.1769V24.4612H32.8255V29.1958H32.185L29.6952 25.4775V29.1958H29.0952Z" fill="white"/>
<path d="M34.8656 27.6723L35.4629 27.6171C35.4896 27.8554 35.5521 28.0534 35.6543 28.2025C35.7555 28.3549 35.9152 28.4788 36.1292 28.5736C36.3449 28.6668 36.5823 28.7115 36.8523 28.7115C37.0913 28.7115 37.3007 28.6791 37.4838 28.6043C37.6669 28.5362 37.7998 28.4359 37.8924 28.3119C37.9829 28.1895 38.0243 28.0534 38.0243 27.909C38.0243 27.7589 37.9829 27.6317 37.8963 27.5232C37.8087 27.4122 37.6718 27.3157 37.4707 27.242C37.3419 27.1908 37.0615 27.1146 36.6286 27.0125C36.1989 26.9087 35.8926 26.8083 35.7166 26.7149C35.4929 26.5973 35.3243 26.45 35.215 26.27C35.1046 26.0982 35.0456 25.902 35.0456 25.6848C35.0456 25.4423 35.1145 25.2196 35.2514 25.0136C35.3836 24.8028 35.5805 24.6489 35.8463 24.5378C36.1016 24.4283 36.3903 24.3772 36.7096 24.3772C37.0582 24.3772 37.3695 24.4316 37.6362 24.5476C37.9052 24.6619 38.1063 24.8207 38.253 25.0443C38.3988 25.264 38.4768 25.5112 38.4864 25.791L37.8873 25.8387C37.8501 25.5388 37.7439 25.3182 37.5567 25.166C37.3751 25.0103 37.1004 24.9365 36.7395 24.9365C36.3594 24.9365 36.0838 25.0038 35.9152 25.1434C35.7402 25.2785 35.6543 25.4489 35.6543 25.645C35.6543 25.8136 35.7126 25.9571 35.8367 26.0658C35.9556 26.1752 36.2718 26.2846 36.7753 26.3997C37.2827 26.5188 37.6296 26.6153 37.8226 26.7021C38.1022 26.8309 38.3033 26.9897 38.4321 27.1875C38.5634 27.3804 38.6332 27.605 38.6332 27.8554C38.6332 28.1076 38.5586 28.345 38.4191 28.5703C38.2708 28.7892 38.0651 28.9626 37.7959 29.086C37.525 29.2107 37.2187 29.274 36.8847 29.274C36.4535 29.274 36.0968 29.2107 35.805 29.086C35.5155 28.9626 35.2927 28.7698 35.1274 28.5233C34.9621 28.2705 34.8768 27.99 34.8656 27.6723Z" fill="white"/>
<path d="M41.887 29.1959V25.0191H40.3257V24.4595H44.0697V25.0191H42.5151V29.1959H41.887Z" fill="white"/>
<path d="M46.55 26.5476H47.9005C48.1849 26.5476 48.4127 26.5207 48.5732 26.46C48.7345 26.4 48.8578 26.3043 48.9396 26.1755C49.0222 26.0483 49.0686 25.9071 49.0686 25.7515C49.0686 25.5262 48.9859 25.3429 48.8254 25.2037C48.66 25.0544 48.3999 24.9832 48.052 24.9832H46.55V26.5476ZM45.9242 29.1958V24.4594H48.0244C48.4442 24.4594 48.7646 24.5 48.9891 24.5892C49.2088 24.6702 49.3878 24.821 49.5159 25.0366C49.6481 25.2514 49.7129 25.4889 49.7129 25.7515C49.7129 26.0854 49.6083 26.3691 49.3878 26.5977C49.169 26.8262 48.8343 26.9755 48.3771 27.0364C48.5448 27.1198 48.6689 27.196 48.7557 27.2754C48.9396 27.4441 49.113 27.6531 49.2776 27.9045L50.0971 29.1958H49.315L48.6836 28.2092C48.5053 27.9263 48.3537 27.7051 48.2304 27.5591C48.1112 27.4075 48.0049 27.2965 47.9144 27.2389C47.8185 27.1781 47.722 27.1376 47.6257 27.1149C47.5574 27.1004 47.4368 27.0971 47.2788 27.0971H46.55V29.1958H45.9242Z" fill="white"/>
<path d="M54.9982 24.4605H55.6216V27.1923C55.6216 27.6689 55.5713 28.0499 55.4642 28.3302C55.3557 28.6058 55.1596 28.8353 54.8798 29.0103C54.5954 29.1822 54.2256 29.2754 53.7718 29.2754C53.3244 29.2754 52.9629 29.1969 52.6841 29.0435C52.3987 28.8929 52.1976 28.6684 52.0737 28.382C51.9561 28.0887 51.8953 27.6964 51.8953 27.1923V24.4605H52.5228V27.1889C52.5228 27.5999 52.56 27.9056 52.6371 28.1009C52.7116 28.2923 52.8479 28.4422 53.031 28.5491C53.219 28.652 53.4468 28.7112 53.7126 28.7112C54.1794 28.7112 54.5045 28.6025 54.7007 28.3967C54.8978 28.186 54.9982 27.7847 54.9982 27.1889V24.4605Z" fill="white"/>
<path d="M57.8353 29.1959V24.4595H58.782L59.9022 27.8139C60.0037 28.1259 60.0805 28.3586 60.1309 28.5142C60.1818 28.3406 60.2694 28.0877 60.3827 27.7547L61.5193 24.4595H62.3688V29.1959H61.7609V25.2345L60.3781 29.1959H59.8113L58.4438 25.16V29.1959H57.8353Z" fill="white"/>
<path d="M64.5767 29.1959V24.4595H67.999V25.0191H65.2042V26.4634H67.8207V27.0226H65.2042V28.6399H68.1084V29.1959H64.5767Z" fill="white"/>
<path d="M70.1635 29.1959V24.4595H70.8038L73.2932 28.177V24.4595H73.8921V29.1959H73.2534L70.7634 25.4777V29.1959H70.1635Z" fill="white"/>
<path d="M77.3489 29.1959V22.8126H75.7885V22.2541H79.5359V22.8126H77.9746V29.1959H77.3489Z" fill="white"/>
<path d="M81.219 2.54922V2.20232H83.8258V2.54922H82.7396V5.29871H82.3059V2.54922H81.219Z" fill="white"/>
<path d="M84.7896 2.20232L85.8168 4.80417L86.8484 2.20232H87.4418V5.29871H87.0309V2.72259H87.022L86.0037 5.29871H85.6342L84.6161 2.72259H84.6065V5.29871H84.1963V2.20232H84.7896Z" fill="white"/>
</svg>
