<svg width="24" height="24" viewBox="0 0 24 24" fill="none" xmlns="http://www.w3.org/2000/svg">
<path fill-rule="evenodd" clip-rule="evenodd" d="M21 12.0001C21 11.4478 20.5523 11.0001 20 11.0001L10 11.0001C9.44771 11.0001 9 11.4478 9 12.0001C9 12.5524 9.44771 13.0001 10 13.0001L20 13.0001C20.5523 13.0001 21 12.5524 21 12.0001Z" fill="#CD001A"/>
<path fill-rule="evenodd" clip-rule="evenodd" d="M21 5.00012C21 4.44784 20.5523 4.00012 20 4.00012L4 4.00012C3.44772 4.00012 3 4.44784 3 5.00012C3 5.55241 3.44772 6.00012 4 6.00012L20 6.00012C20.5523 6.00012 21 5.55241 21 5.00012Z" fill="#CD001A"/>
<path fill-rule="evenodd" clip-rule="evenodd" d="M21 19.0001C21 18.4478 20.5523 18.0001 20 18.0001L4 18.0001C3.44772 18.0001 3 18.4478 3 19.0001C3 19.5524 3.44772 20.0001 4 20.0001L20 20.0001C20.5523 20.0001 21 19.5524 21 19.0001Z" fill="#CD001A"/>
</svg>
